<?xml version="1.0" encoding="utf-8"?>
<!-- Generator: Adobe Illustrator 21.1.0, SVG Export Plug-In . SVG Version: 6.00 Build 0)  -->
<svg version="1.1" id="Layer_1" xmlns="http://www.w3.org/2000/svg" xmlns:xlink="http://www.w3.org/1999/xlink" x="0px" y="0px"
	 viewBox="0 0 1890.9 688" style="enable-background:new 0 0 1890.9 688;" xml:space="preserve">
<style type="text/css">
	.st0{fill:#010101;}
	.st1{fill:none;}
	.st2{fill:#FFFFFF;}
	.st3{clip-path:url(#SVGID_2_);fill:none;stroke:#FFFFFF;stroke-width:18;stroke-miterlimit:10;}
	.st4{clip-path:url(#SVGID_4_);fill:none;stroke:#FFFFFF;stroke-width:18;stroke-miterlimit:10;}
	.st5{clip-path:url(#SVGID_6_);fill:none;stroke:#FFFFFF;stroke-width:18;stroke-miterlimit:10;}
	.st6{clip-path:url(#SVGID_8_);fill:none;stroke:#FFFFFF;stroke-width:18;stroke-miterlimit:10;}
	.st7{clip-path:url(#SVGID_10_);fill:none;stroke:#FFFFFF;stroke-width:18;stroke-miterlimit:10;}
	.st8{clip-path:url(#SVGID_12_);fill:none;stroke:#FFFFFF;stroke-width:18;stroke-miterlimit:10;}
	.st9{clip-path:url(#SVGID_14_);fill:none;stroke:#FFFFFF;stroke-width:18;stroke-miterlimit:10;}
</style>
<rect x="-1647.1" y="-367.1" class="st0" width="4410.4" height="5487.1"/>
<g>
	<g>
		<path class="st1" d="M350.9,327.7c-5.3-4.2-10.4-8.6-15.4-13.3c-4.9-4.6-9.6-9.5-14.1-14.6v63.3h74.8L350.9,327.7z"/>
		<g>
			<path class="st2" d="M654.1,406.8L419.8,214.1v89.2l45.8,35.6v-39.1c4.5,5.1,9.2,10,14.1,14.6c4.9,4.6,10.1,9.1,15.4,13.3
				l198.3,154.9v-42.4V439v-33.8L654.1,375V406.8z"/>
			<path class="st2" d="M275.7,472.9h45.8v-74.1h120.5l107.3,83.8V439L275.7,214.1V472.9z M321.4,299.8c4.5,5.1,9.2,10,14.1,14.6
				c4.9,4.6,10.1,9.1,15.4,13.3l45.4,35.4h-74.8V299.8z"/>
			<path class="st2" d="M786.6,396.5c-6-6.1-11.7-11.6-17.1-16.5c-5.4-4.9-10.8-9.5-16.1-13.8L559,214.1V255v7.8v37.8l39.1,33v-39.3
				l234.4,188.4v-219l-46-35.4V396.5z"/>
		</g>
	</g>
</g>
<g>
	<defs>
		
			<rect id="SVGID_9_" x="280.7" y="-202.2" transform="matrix(0.4041 0.9147 -0.9147 0.4041 650.6171 -298.2685)" width="547.1" height="1104.9"/>
	</defs>
	<clipPath id="SVGID_2_">
		<use xlink:href="#SVGID_9_"  style="overflow:visible;"/>
	</clipPath>
	<rect x="166.5" y="115.7" class="st3" width="775.6" height="469.2"/>
</g>
<g>
	<path class="st2" d="M1160.4,309.3c-4.8-4.1-10-7.2-15.3-9.3c-5.4-2.1-11.1-3.1-17-3.1c-11.5,0-20.9,3.7-28.1,11.1
		c-7.2,7.4-10.8,16.9-10.8,28.7c0,11.4,3.5,20.7,10.5,28.1c7,7.4,15.9,11.1,26.6,11.1c6.2,0,12.2-1.1,17.8-3.3
		c5.6-2.2,11-5.5,16.2-10v19.3c-4.6,3.3-9.6,5.8-15,7.4c-5.4,1.6-11.3,2.4-17.6,2.4c-8,0-15.5-1.3-22.3-4c-6.8-2.6-12.8-6.5-18-11.6
		c-5.1-5-9.1-11-11.8-17.8c-2.8-6.8-4.1-14.1-4.1-21.8c0-7.7,1.4-15,4.1-21.7c2.8-6.8,6.7-12.7,12-17.9c5.2-5.2,11.2-9.1,18-11.8
		c6.8-2.7,14.1-4,21.9-4c6.2,0,12.1,0.9,17.7,2.7c5.6,1.8,11,4.5,16.3,8.2L1160.4,309.3z"/>
	<path class="st2" d="M1457.9,389V283.7h23.1c15,0,25.6,0.8,31.7,2.3c6.1,1.5,11.5,4,16.1,7.6c6.1,4.6,10.7,10.6,13.8,17.9
		c3.1,7.3,4.7,15.6,4.7,24.9s-1.6,17.6-4.7,24.8c-3.1,7.2-7.8,13.2-13.8,17.9c-4.6,3.5-9.8,6.1-15.7,7.6c-5.9,1.5-15,2.3-27.4,2.3
		h-4.6H1457.9z M1475,373.5h14.4c7.9,0,13.8-0.5,17.8-1.6c4-1.1,7.4-2.8,10.3-5.3c4-3.4,7-7.6,8.9-12.7c2-5.1,3-10.9,3-17.6
		c0-6.7-1-12.6-3-17.6c-2-5.1-5-9.3-8.9-12.7c-3-2.5-6.5-4.3-10.7-5.3c-4.1-1.1-10.6-1.6-19.4-1.6h-6.2h-6.2V373.5z"/>
	<path class="st2" d="M1666.4,389V283.7h58.7v14.5h-41.6v26.4h25.4v15h-25.4v34h41.6V389H1666.4z"/>
	<path class="st2" d="M1365.7,336.6c0,7.5-1.4,14.5-4.2,21.2c-2.8,6.7-6.9,12.6-12.3,17.8c-5.4,5.2-11.5,9.2-18.3,12
		c-6.8,2.8-13.9,4.2-21.4,4.2c-7.6,0-14.8-1.4-21.7-4.2c-6.9-2.8-12.9-6.8-18.2-12c-5.4-5.2-9.4-11.1-12.2-17.8
		c-2.8-6.6-4.2-13.7-4.2-21.3c0-7.5,1.4-14.6,4.2-21.3c2.8-6.7,6.9-12.6,12.2-17.9c5.4-5.2,11.5-9.2,18.3-11.9
		c6.8-2.7,14-4.1,21.6-4.1c7.6,0,14.7,1.4,21.5,4.1c6.8,2.7,12.9,6.7,18.2,11.9c5.4,5.3,9.5,11.3,12.3,18
		C1364.3,322.1,1365.7,329.1,1365.7,336.6z M1347.9,336.6c0-5.3-1-10.4-2.9-15.2c-1.9-4.8-4.7-9.1-8.4-12.8
		c-3.5-3.7-7.7-6.5-12.3-8.5c-4.7-2-9.6-3-14.8-3s-10.1,1-14.8,2.9c-4.7,2-8.8,4.8-12.5,8.6c-3.6,3.7-6.4,7.9-8.3,12.7
		c-1.9,4.8-2.9,9.9-2.9,15.2c0,5.3,1,10.3,2.9,15.1c1.9,4.7,4.7,9,8.3,12.7c3.6,3.7,7.8,6.6,12.4,8.6c4.6,2,9.6,2.9,14.8,2.9
		c5.1,0,10-1,14.6-2.9c4.6-2,8.8-4.8,12.5-8.6c3.6-3.7,6.4-8,8.4-12.8C1346.9,346.9,1347.9,341.8,1347.9,336.6z"/>
</g>
</svg>
