<?xml version="1.0" encoding="utf-8"?>
<!-- Generator: Adobe Illustrator 21.0.0, SVG Export Plug-In . SVG Version: 6.00 Build 0)  -->
<svg version="1.1" id="Layer_1" xmlns="http://www.w3.org/2000/svg" xmlns:xlink="http://www.w3.org/1999/xlink" x="0px" y="0px"
	 viewBox="0 0 300 58.3" style="enable-background:new 0 0 300 58.3;" xml:space="preserve">
<style type="text/css">
	.st0{fill:none;}
</style>
<g>
	<path class="st0" d="M118,43.8c3.6,3.8,8.2,5.7,13.6,5.7c2.3,0,4.5-0.3,6.7-0.9l-25.3-24c-0.3,1.5-0.4,3.1-0.4,4.7
		C112.6,35.2,114.4,40,118,43.8z"/>
	<polygon class="st0" points="290.2,48.3 290,48.1 290.1,47.7 276.9,35.1 276.9,48.3 	"/>
	<path class="st0" d="M223.5,48.2h7.4c4.1,0,7.1-0.3,9.1-0.8c0.4-0.1,0.7-0.2,1.1-0.3l-17.6-16.7V48.2z"/>
	<path class="st0" d="M196.6,37c1-2.4,1.5-5,1.5-7.7c0-2.7-0.5-5.3-1.5-7.8c-1-2.5-2.4-4.7-4.3-6.6c-1.8-1.9-3.9-3.4-6.3-4.4
		c-2.4-1-4.9-1.5-7.6-1.5s-5.2,0.5-7.6,1.5c-0.6,0.2-1.1,0.5-1.7,0.8l27.4,25.9C196.5,37.2,196.6,37.1,196.6,37z"/>
	<path class="st0" d="M251.5,29.1c0-3.4-0.5-6.5-1.5-9.1c-1-2.6-2.6-4.8-4.6-6.5c-1.5-1.3-3.4-2.2-5.5-2.7c-2.1-0.5-5.5-0.8-10-0.8
		h-1.7l23.1,21.9C251.4,31,251.5,30.1,251.5,29.1z"/>
	<path class="st0" d="M13.3,24.7c-0.9-0.9-1.8-1.9-2.7-2.9c-0.9-1-1.7-2.1-2.5-3.2v13.7h13.2L13.3,24.7z"/>
	<path class="st0" d="M158.7,29.3c0,2.7,0.5,5.3,1.5,7.8c1,2.4,2.4,4.6,4.3,6.5c1.9,1.9,4,3.4,6.4,4.4c2.4,1,4.9,1.5,7.6,1.5
		c1.5,0,2.9-0.2,4.3-0.5l-23.8-22.6C158.7,27.3,158.7,28.3,158.7,29.3z"/>
	<g>
		<path d="M66.8,41.8L25.4,0v19.4l8.1,7.7v-8.5c0.8,1.1,1.6,2.2,2.5,3.2c0.9,1,1.8,2,2.7,2.9l35,33.6v-9.2v-0.2v-7.3l-6.9-6.6V41.8z
			"/>
		<path d="M0,56.2h8.1V40.1h21.3l19,18.2v-9.4L0,0V56.2z M8.1,18.6c0.8,1.1,1.6,2.2,2.5,3.2c0.9,1,1.8,2,2.7,2.9l8,7.7H8.1V18.6z"/>
		<path d="M90.2,39.6c-1.1-1.3-2.1-2.5-3-3.6c-1-1.1-1.9-2.1-2.8-3L50,0v8.9v1.7v8.2l6.9,7.2v-8.5l41.4,40.9V10.7L90.2,3V39.6z"/>
		<path d="M131.6,49.5c-5.5,0-10-1.9-13.6-5.7c-3.6-3.8-5.4-8.6-5.4-14.4c0-1.7,0.1-3.2,0.4-4.7l-7.3-6.9c-0.1,0.1-0.1,0.3-0.2,0.4
			c-1.4,3.5-2.1,7.2-2.1,11.2c0,4,0.7,7.7,2.1,11.2c1.4,3.5,3.4,6.6,6.1,9.1c2.7,2.6,5.7,4.6,9.2,6c3.5,1.4,7.3,2,11.5,2
			c3.2,0,6.3-0.4,9-1.3c1.3-0.4,2.5-0.9,3.7-1.4l-6.7-6.4C136.1,49.2,133.9,49.5,131.6,49.5z"/>
		<path d="M132.5,8.9c3.1,0,6,0.5,8.7,1.6c0.5,0.2,1,0.4,1.5,0.6L131.9,0.9c-3.9,0-7.6,0.7-11,2c-1.1,0.4-2.1,0.9-3.1,1.4l6.5,6.1
			C126.7,9.4,129.5,8.9,132.5,8.9z"/>
		<path d="M243.5,3.5c-0.2-0.1-0.4-0.1-0.6-0.2c-3.1-0.8-8.6-1.2-16.3-1.2h-6.7l8.3,7.9h1.7c4.5,0,7.9,0.3,10,0.8
			c2.1,0.5,4,1.5,5.5,2.7c2,1.7,3.6,3.9,4.6,6.5c1,2.6,1.5,5.6,1.5,9.1c0,1,0,1.9-0.1,2.8l7.8,7.4c1-3.1,1.4-6.4,1.4-10.1
			c0-4.1-0.6-7.8-1.8-11.2L243.5,3.5z"/>
		<path d="M240.1,47.4c-2,0.5-5.1,0.8-9.1,0.8h-7.4V30.4l-8.8-8.3v34.1h11.8h2.4c6.4,0,11.1-0.4,14.1-1.2c1.6-0.4,3.2-1,4.6-1.7
			l-6.5-6.2C240.8,47.2,240.4,47.3,240.1,47.4z"/>
		<polygon points="276.9,48.3 276.9,35.1 268.1,26.8 268.1,56.2 298.3,56.2 298.3,55.9 290.2,48.3 		"/>
		<polygon points="276.9,9.6 298.3,9.6 298.3,9.4 290.7,2.1 268.3,2.1 276.9,10.3 		"/>
		<path d="M178.4,49.5c-2.7,0-5.2-0.5-7.6-1.5c-2.4-1-4.5-2.5-6.4-4.4c-1.9-1.9-3.3-4.1-4.3-6.5c-1-2.4-1.5-5-1.5-7.8
			c0-1,0.1-1.9,0.2-2.9l-7.6-7.2c-1.2,3.2-1.8,6.5-1.8,10c0,3.9,0.7,7.5,2.1,10.9c1.4,3.4,3.5,6.4,6.3,9.1c2.7,2.7,5.8,4.7,9.4,6.1
			c3.5,1.4,7.2,2.2,11.1,2.2c3.8,0,7.5-0.7,11-2.1c0,0,0.1,0,0.1,0l-6.8-6.5C181.3,49.3,179.9,49.5,178.4,49.5z"/>
		<path d="M198.8,9.2c-2.8-2.7-5.9-4.7-9.4-6.1c-3.5-1.4-7.2-2.1-11.1-2.1c-3.9,0-7.6,0.7-11.1,2.1c-1.6,0.6-3.1,1.4-4.5,2.3l6.3,6
			c0.5-0.3,1.1-0.6,1.7-0.8c2.4-1,4.9-1.5,7.6-1.5s5.2,0.5,7.6,1.5c2.4,1,4.5,2.5,6.3,4.4c1.9,1.9,3.3,4.1,4.3,6.6
			c1,2.5,1.5,5.1,1.5,7.8c0,2.7-0.5,5.3-1.5,7.7c0,0.1-0.1,0.2-0.1,0.2l6.8,6.4c0.7-1.1,1.3-2.3,1.8-3.5c1.4-3.4,2.2-7,2.2-10.9
			c0-3.8-0.7-7.4-2.2-10.9C203.7,15,201.6,11.9,198.8,9.2z"/>
		<polygon points="291.2,25.4 290,25.4 288.5,25.4 290,27 290.7,27.8 295.6,33.1 300,33.1 292.3,25.4 		"/>
	</g>
</g>
</svg>
